<svg id="Layer_1" data-name="Layer 1" xmlns="http://www.w3.org/2000/svg" viewBox="0 0 806.71 511.99"><defs><style>.cls-1{fill:#fff;}</style></defs><title>logoblanc</title><path class="cls-1" d="M243.27,85.32a102,102,0,0,0-92.58,56,8.54,8.54,0,0,0,15.3,7.58,85,85,0,0,1,77.28-46.46,8.54,8.54,0,1,0,0-17.07Z" transform="translate(-89.62 0)"/><path class="cls-1" d="M281.6,358.13c-.7.79-1.42,1.58-2.17,2.33a51.1,51.1,0,0,1-65.84,5.5l35.66-35.67h0l20.13-20.13a76,76,0,0,1,15.2-40.2,68.27,68.27,0,1,0,8.06,101.37A74.93,74.93,0,0,1,281.6,358.13Zm-29.84-54.47V273.82a50.43,50.43,0,0,1,21.1,8.74Zm-17.07-29.84v29.84l-21.1-21.11A50.49,50.49,0,0,1,234.69,273.82Zm-33.17,20.8,21.1,21.1H192.78A50.74,50.74,0,0,1,201.52,294.62Zm-8.74,38.17h29.84l-21.1,21.1A50.51,50.51,0,0,1,192.78,332.79Z" transform="translate(-89.62 0)"/><path class="cls-1" d="M419.85,35.72,390.58,7.13a24.57,24.57,0,0,0-19.24-7,25.3,25.3,0,0,0-18.26,10.41,9.19,9.19,0,0,0-.6.93L318.59,73a139.52,139.52,0,0,0-75.32-21.78,134.55,134.55,0,0,0-136,121,25.48,25.48,0,0,0-9.55,5.7,24.66,24.66,0,0,0-8.12,18.33,25.67,25.67,0,0,0,17.95,24.08L146.15,504.6a8.53,8.53,0,0,0,8.46,7.39H331.84a8.52,8.52,0,0,0,8.45-7.39l8.23-60.6-16.93-2.16-1.41,10.42H156.27L125,221.86H361.45l-2.58,19L375.8,243l3.08-22.65a25.47,25.47,0,0,0,9.83-5.79,24.6,24.6,0,0,0,8.11-18.32,25.65,25.65,0,0,0-17.64-24,130.41,130.41,0,0,0-46.76-89l34.71-63a8.08,8.08,0,0,1,5.61-3.12,7.6,7.6,0,0,1,5.92,2.25l29.27,28.59a8.53,8.53,0,0,0,11.92-12.21Zm-92,433.6-3.47,25.6H162.06l-3.47-25.6Zm51.9-273.06a7.92,7.92,0,0,1-2.75,5.9,9.78,9.78,0,0,1-6.85,2.63H116.29a9.23,9.23,0,0,1-9.6-8.53,8,8,0,0,1,2.75-5.91,9.8,9.8,0,0,1,6.85-2.63H370.16A9.26,9.26,0,0,1,379.76,196.26ZM362,170.66H124.43A117.79,117.79,0,0,1,243.27,68.26a122,122,0,0,1,72.27,23.33,8.33,8.33,0,0,0,1.73,1.46,2.44,2.44,0,0,0,.24.1A113.81,113.81,0,0,1,362,170.66Z" transform="translate(-89.62 0)"/><path class="cls-1" d="M334.61,241.4a10,10,0,0,0-2.81-1.8,8.17,8.17,0,0,0-4.95-.5,5.45,5.45,0,0,0-1.54.5,5.32,5.32,0,0,0-1.45.77c-.51.35-.94.69-1.36,1a8.6,8.6,0,0,0-1.8,2.81,8.45,8.45,0,0,0-.68,3.25,8.81,8.81,0,0,0,2.48,6.06c.42.34.85.68,1.36,1a4.82,4.82,0,0,0,1.45.77,5.58,5.58,0,0,0,1.54.51,12.08,12.08,0,0,0,1.71.17,7.1,7.1,0,0,0,3.24-.68,8.89,8.89,0,0,0,2.82-1.79,15.9,15.9,0,0,0,1-1.28,6.72,6.72,0,0,0,.77-1.54,5.47,5.47,0,0,0,.51-1.54,10.76,10.76,0,0,0,.17-1.7A9,9,0,0,0,334.61,241.4Z" transform="translate(-89.62 0)"/><path class="cls-1" d="M300.48,241.4a10.13,10.13,0,0,0-2.81-1.8,8.19,8.19,0,0,0-5-.5,5.49,5.49,0,0,0-1.53.5,6.72,6.72,0,0,0-1.54.77l-1.27,1a8.6,8.6,0,0,0-1.8,2.81,8.45,8.45,0,0,0-.68,3.25,8.81,8.81,0,0,0,2.48,6.06l1.27,1a6.93,6.93,0,0,0,1.54.77,5.47,5.47,0,0,0,1.54.51,10.76,10.76,0,0,0,1.7.17,7.17,7.17,0,0,0,3.25-.68,8.85,8.85,0,0,0,2.81-1.79l1-1.28a6,6,0,0,0,.77-1.54,5.49,5.49,0,0,0,.52-1.54,12.09,12.09,0,0,0,.17-1.7A9,9,0,0,0,300.48,241.4Z" transform="translate(-89.62 0)"/><path class="cls-1" d="M336.41,278.35a9.82,9.82,0,0,0-1.8-2.82,8.52,8.52,0,0,0-9.3-1.79,7.75,7.75,0,0,0-4.61,4.61,8.78,8.78,0,0,0-.68,3.24,9,9,0,0,0,2.48,6.06,9.88,9.88,0,0,0,2.81,1.79,8.06,8.06,0,0,0,6.49,0,8.89,8.89,0,0,0,2.82-1.79,9,9,0,0,0,2.47-6.06A8.59,8.59,0,0,0,336.41,278.35Z" transform="translate(-89.62 0)"/><path class="cls-1" d="M181,420.6a8.55,8.55,0,0,0-12.11,0,9.91,9.91,0,0,0-1.8,2.81,8.81,8.81,0,0,0,1.8,9.31,9,9,0,0,0,6.06,2.47,13.79,13.79,0,0,0,1.7-.17,5.58,5.58,0,0,0,1.54-.51,6.93,6.93,0,0,0,1.54-.77c.44-.32.87-.66,1.28-1A8.57,8.57,0,0,0,181,420.6Z" transform="translate(-89.62 0)"/><path class="cls-1" d="M216.94,423.41a9.88,9.88,0,0,0-1.79-2.81,8.7,8.7,0,0,0-9.31-1.8,7.74,7.74,0,0,0-4.6,4.61,8.85,8.85,0,0,0,1.79,9.31,9.88,9.88,0,0,0,2.81,1.79,8.45,8.45,0,0,0,3.25.68,9,9,0,0,0,6.06-2.47,8.85,8.85,0,0,0,1.79-9.31Z" transform="translate(-89.62 0)"/><path class="cls-1" d="M175,384a8.81,8.81,0,0,0-1.78.18,5.27,5.27,0,0,0-1.54.51,6.65,6.65,0,0,0-1.53.77c-.43.34-.86.68-1.28,1A8.58,8.58,0,1,0,175,384Z" transform="translate(-89.62 0)"/><path class="cls-1" d="M345.36,242.94a38.68,38.68,0,0,1,28.9,12.38,43.82,43.82,0,0,1,11.41,30.31q0,20.6-16,41.38a111.35,111.35,0,0,1-8.65,9.52c-3.64,3.54-5.74,5.32-6.28,5.32a2.68,2.68,0,0,1-1.41.33h-.05q-3.28,0-4.3-3.48a2.73,2.73,0,0,1-.09-.72v-.34q0-2.33,3.09-4.5a110.77,110.77,0,0,0,9.33-9.71,83.13,83.13,0,0,0,8.27-11.85q7.29-13.38,7.29-25.18v-1.5a34.84,34.84,0,0,0-8.41-23q-9.37-10.15-22.47-10.15h-1.41q-13,0-28.37,9.62a78.52,78.52,0,0,0-11,8.85q-6.53,6.77-8.85,10.63-9.48,14-9.47,28v.43q0,19,19.19,37.66,6,6,14.55,13.82,9.61,9.24,11.7,11.94a58.49,58.49,0,0,1,7.2,10.06,35.84,35.84,0,0,1,2.7,5.27q3.15,6.09,8.27,6.09h1a69.18,69.18,0,0,0,20.06-6.67A89.53,89.53,0,0,0,383.74,380a7,7,0,0,1,3.67-1.69h.1q2.94,0,4.16,3.24a4.16,4.16,0,0,1,.14,1v.19q0,2.76-3.82,4.83a90.75,90.75,0,0,1-11.74,7.3,82.52,82.52,0,0,1-15,6,89.09,89.09,0,0,1-11.41,2.37,8.38,8.38,0,0,0-4.78,3.92,20.11,20.11,0,0,0-1.5,5.17,43.11,43.11,0,0,1-3.58,8.27,42.56,42.56,0,0,1-6.38,8.17q-11.16,10.49-21.37,10.49h-.72q-8.26,0-14.16-7.06a18.91,18.91,0,0,1-3.73-11.12v-.43q0-9.63,9.14-16.78a30.59,30.59,0,0,1,7.06-4,46.82,46.82,0,0,1,8.79-2.66A98.12,98.12,0,0,1,330.18,396a4.93,4.93,0,0,0,3.14-1.88,4.2,4.2,0,0,0,.48-2q0-4.07-9-14.75-4.35-4.87-13.53-13.48-.15,0-8-7.45Q293.63,347,291.55,344q-13.44-16.25-13.43-34.66,0-20.83,16.14-40.17c1.48-1.67,3-3.32,4.64-4.93q7.5-7.05,11.75-9.57Q328.34,242.94,345.36,242.94Zm-43,177.94V421q0,5.66,5.27,8.65a11.17,11.17,0,0,0,4.45,1q7.24,0,16-8.56,5.42-6.09,6.82-11.26a11.52,11.52,0,0,0,.19-1.7,3.85,3.85,0,0,0-2.85-3.81,10.35,10.35,0,0,0-2.61-.49,70.66,70.66,0,0,0-11.94,1.65,38.74,38.74,0,0,0-7.45,2.94Q302.33,414.21,302.33,420.88Z" transform="translate(-89.62 0)"/><path class="cls-1" d="M421.3,370.56h.87a10.16,10.16,0,0,1,7.83,3.67,14.06,14.06,0,0,1,2.85,9.19V384q0,1.74-.24,6.91h-.05c0,.07,0,.1.05.1l-.05.48v.34a2.31,2.31,0,0,0,1.36,2.37,5.83,5.83,0,0,1,.62.14q1.89,0,4.79-3,.48-.35,7.64-6.77,10.2-8.65,14.74-10.34a18.16,18.16,0,0,1,6.91-1.65q7.2,0,10.88,7.35a62,62,0,0,1,2.71,9.67q1.79,6,5,7.92a11.05,11.05,0,0,0,6.19,1.65h.44q12.13,0,33.11-13.54,4.59-3.09,9.57-6.86a5.23,5.23,0,0,1,2.08-.58q3,0,4.25,3.43l.1,1q0,2.61-3.67,4.78a132.64,132.64,0,0,1-14.89,9.86q-18.22,10.59-31.62,10.59-12.42,0-16.82-9.91-1.5-3-3.77-13.2c-.81-2.32-1.9-3.48-3.29-3.48h-.72q-5.22,0-22.29,15.81-8.94,8.11-12,8.7a5.07,5.07,0,0,1-2.23.34h-.14a6.56,6.56,0,0,1-6.67-4.55,21.7,21.7,0,0,1-1-7l.34-10.69v-.67q0-4.06-2.47-4.07-7.29,0-28.81,24.37c-2.29,2.45-4,3.9-5.27,4.35a5.8,5.8,0,0,1-1.2.19q-3.19,0-5.27-3.48a13,13,0,0,1-1.21-6q0-9.53,6-21.56a35.22,35.22,0,0,1,2.56-4.06,4.44,4.44,0,0,1,3-1.26h.24c1.94,0,3.3,1.11,4.11,3.34l.1,1a7.25,7.25,0,0,1-1.74,3.92q-3.91,7.16-3.92,10c0,.8.29,1.21.87,1.21h0c1,0,2.67-1.28,4.93-3.82q8.75-8.76,10.78-9.91Q415.1,370.57,421.3,370.56Z" transform="translate(-89.62 0)"/><path class="cls-1" d="M546.4,406.19a13.6,13.6,0,0,1-10.24-4.35q-3.35-3.93-3.34-10.25a30.4,30.4,0,0,1,2.76-12.14,23,23,0,0,1,3.91-6,11.6,11.6,0,0,1,8.56-3.91,13.11,13.11,0,0,1,7.83,2.8,17.84,17.84,0,0,1,4.25,4.4,30.88,30.88,0,0,1,2.71,5.12,19.43,19.43,0,0,0,3.43,5.13,11.16,11.16,0,0,0,4.64,3,42.41,42.41,0,0,0,12,1.6,60.52,60.52,0,0,0,21.22-4,64.87,64.87,0,0,0,15.71-8.75,4.48,4.48,0,0,1,2.37-.67,4.34,4.34,0,0,1,3.38,1.59,4.42,4.42,0,0,1-.72,6.24A71.47,71.47,0,0,1,601,397.78a67.66,67.66,0,0,1-17.94,2.51,52.92,52.92,0,0,1-15.37-2.18,10.74,10.74,0,0,0-1.84-.19,9.89,9.89,0,0,0-6.13,2.13,18.57,18.57,0,0,0-1.65,1.54,15.3,15.3,0,0,1-1.93,1.55A17.55,17.55,0,0,1,546.4,406.19Zm.1-8.71a9,9,0,0,0,6.38-2.94,9.33,9.33,0,0,0,2.27-6.24,11.61,11.61,0,0,0-2.7-7.3,12.34,12.34,0,0,0-1.31-1.3,4.93,4.93,0,0,0-3-1.45c-1.25,0-2.53,1.11-3.81,3.33a24.31,24.31,0,0,0-1.5,3.34,21,21,0,0,0-1.21,6.76,8.8,8.8,0,0,0,.68,3.77C543,396.81,544.44,397.48,546.5,397.48Z" transform="translate(-89.62 0)"/><path class="cls-1" d="M629.45,406.19a13.62,13.62,0,0,1-10.25-4.35q-3.33-3.93-3.33-10.25a30.55,30.55,0,0,1,2.75-12.14,23,23,0,0,1,3.92-6,11.58,11.58,0,0,1,8.55-3.91,13.11,13.11,0,0,1,7.84,2.8,18,18,0,0,1,4.25,4.4,31.65,31.65,0,0,1,2.71,5.12,19.43,19.43,0,0,0,3.43,5.13,11.16,11.16,0,0,0,4.64,3,42.41,42.41,0,0,0,12,1.6,60.52,60.52,0,0,0,21.22-4,65.06,65.06,0,0,0,15.71-8.75,4.48,4.48,0,0,1,2.37-.67,4.34,4.34,0,0,1,3.38,1.59,4.41,4.41,0,0,1,1,2.76,4.47,4.47,0,0,1-1.69,3.48,71.52,71.52,0,0,1-23.84,11.75,67.59,67.59,0,0,1-17.93,2.51,52.87,52.87,0,0,1-15.37-2.18,10.74,10.74,0,0,0-1.84-.19,9.94,9.94,0,0,0-6.14,2.13,20.87,20.87,0,0,0-1.64,1.54,14.62,14.62,0,0,1-1.94,1.55A17.49,17.49,0,0,1,629.45,406.19Zm.1-8.71a8.84,8.84,0,0,0,5.17-1.83,8.81,8.81,0,0,0,3.48-7.35,11.57,11.57,0,0,0-2.71-7.3,12.27,12.27,0,0,0-1.3-1.3,5,5,0,0,0-3.05-1.45c-1.25,0-2.53,1.11-3.82,3.33a25.69,25.69,0,0,0-1.49,3.34,21,21,0,0,0-1.21,6.76,9,9,0,0,0,.67,3.77C626.07,396.81,627.48,397.48,629.55,397.48Z" transform="translate(-89.62 0)"/><path class="cls-1" d="M728.69,413.2q-13.14,0-20.44-8.17-6.3-7.5-6.29-19.15v-1.74q0-8.75,4.93-31.42,1.89-8.22,4.26-16.77l0-.34a4.09,4.09,0,0,0-2.56-4.11,7.58,7.58,0,0,0-1.55-.29,63.2,63.2,0,0,0-9.13.92,65.37,65.37,0,0,0-7,1.88,56.16,56.16,0,0,0-5.66,2.37,4.88,4.88,0,0,1-1.45.29,4.33,4.33,0,0,1-4-2.61,5,5,0,0,1-.39-1.79,4.34,4.34,0,0,1,1.93-3.57,52.33,52.33,0,0,1,11.12-4.26,66.81,66.81,0,0,1,16.68-2A11.12,11.12,0,0,0,713.8,321a10.77,10.77,0,0,0,2.66-2.27,18.76,18.76,0,0,0,1.4-3.58q7.21-19.53,13.68-28.13a42,42,0,0,1,4.45-5l1.31-1.16q7.35-6.18,14.79-6.18a14.82,14.82,0,0,1,12.33,6.28,21.59,21.59,0,0,1,3.72,12.71q0,11.22-8.22,28.47a5.91,5.91,0,0,0-.34,1.89,2.23,2.23,0,0,0,1.84,2.22,6.88,6.88,0,0,0,1.88.34,93.83,93.83,0,0,0,9.72-.82,85.06,85.06,0,0,0,11.55-2.47,27.73,27.73,0,0,1,4.89-1.3,4.25,4.25,0,0,1,3.72,2.18,4.74,4.74,0,0,1,.58,2.17,4.34,4.34,0,0,1-2.08,3.67,33.68,33.68,0,0,1-5.46,1.84,97.84,97.84,0,0,1-26.83,3.48,12.9,12.9,0,0,0-7.2,2.61,18.47,18.47,0,0,0-3.53,3.63,221.33,221.33,0,0,1-21.08,26.54Q720,376,716.75,378.83c-1.29,1.12-1.93,1.77-1.93,1.93a17.71,17.71,0,0,0-3.09,10,16.35,16.35,0,0,0,.72,4.78,13.79,13.79,0,0,0,7.11,7.3,22.72,22.72,0,0,0,8.65,1.64h1.11q8.37,0,20.84-4.78a126.54,126.54,0,0,0,15.32-7.45,169.8,169.8,0,0,0,19.43-13.39,4.32,4.32,0,0,1,2.08-.62,4.49,4.49,0,0,1,4,2.22,4.27,4.27,0,0,1,.54,2.13,4.58,4.58,0,0,1-2.32,3.91q-19.83,15.57-38.39,22.19Q738.6,413.2,728.69,413.2Zm-13-46.85c1.22,0,2.61-.93,4.15-2.8q4.3-4.5,8.61-9.62,12.62-15.37,12.62-17.89c0-1.12-.84-1.88-2.52-2.27q-2.37-.24-8.84-1.06l-1.21,0q-6.33,0-9.28,6.53-3.35,11.74-5.8,24.31v.58a2.16,2.16,0,0,0,1.35,2.18A4.09,4.09,0,0,0,715.74,366.35Zm27.74-40.8a8.71,8.71,0,0,0,5.52-2.32,9.29,9.29,0,0,0,2-2.75,115.87,115.87,0,0,0,5.36-12.23q3.09-8.65,3.1-14.74,0-5.37-2.81-8.42a6.14,6.14,0,0,0-4.25-1.78h-.73c-1.87,0-4.14.83-6.81,2.51a30.46,30.46,0,0,0-7.06,7.2q-5.66,8.22-11.65,24.8a9.45,9.45,0,0,0-.34,2.27v.44a3,3,0,0,0,1.89,3,73,73,0,0,0,8.07,1.12C740.18,325.27,742.74,325.55,743.48,325.55Z" transform="translate(-89.62 0)"/><path class="cls-1" d="M833.83,275.33h.29q8.13,0,12.86,7.49a23.61,23.61,0,0,1,2.95,12v.34q0,16.2-15.81,40.36a228.17,228.17,0,0,1-14.31,19.92q-6.22,8-17.11,19.62l-6.43,6.58a17.24,17.24,0,0,0-3.91,11.6v3.92l0,.82h.1A123.24,123.24,0,0,1,803.23,383q8.37-9.46,15.66-9.47,9.2,0,12.19,8.75,1.35,4.11,3,11.36a19,19,0,0,0,2.56,5.55q2.08,2.71,6.77,2.71H844q9.43,0,24-7.2a86.48,86.48,0,0,0,13.78-8.9,91.5,91.5,0,0,0,7.68-6.62,4,4,0,0,1,2.23-.82h.72a4,4,0,0,1,3.43,2.27,4.3,4.3,0,0,1,.53,2q0,2.28-2.85,4.5a104.52,104.52,0,0,1-23.68,16.29q-14.85,6.91-25.62,6.91h-1.12q-13.09,0-17-13.44-1.93-7.83-2.51-9.81-1.5-5-4.79-5-6,0-18.66,19.77a68.74,68.74,0,0,1-5.37,7.3,6,6,0,0,1-5.31,2.66q-3.2,0-4.35-3.43a56.1,56.1,0,0,1-1.31-12.33v-2.42q0-18.31,7.69-49.54,7.53-28.43,16.38-46.51a65.8,65.8,0,0,1,7.11-11.45Q824.26,275.32,833.83,275.33Zm-36.74,84.5c0,1.87.58,3,1.74,3.28l.44.1q1.93,0,5.65-3.33,6.63-7.74,11.17-13.68a204.2,204.2,0,0,0,14.45-21.27q10.79-18,10.78-30,0-6.91-3.57-9.87a5.91,5.91,0,0,0-3.44-1.16h-.67q-3.78,0-8.8,4.31a35.49,35.49,0,0,0-5.41,6.38q-7.39,11.55-14.8,35.09-4.25,13.11-7.54,28.28Z" transform="translate(-89.62 0)"/><path class="cls-1" d="M431.23,495V434.25l-27.72,47.42h-3.17l-27.72-47.42V495h-5V424.75h5L401.93,475l29.3-50.29h5V495Z" transform="translate(-89.62 0)"/><path class="cls-1" d="M483.5,424.75h4.36L517.56,495h-5.35l-9.8-23.17H468.85L459.05,495h-5.44Zm17.53,43-15.35-36.83L470,467.72Z" transform="translate(-89.62 0)"/><path class="cls-1" d="M535,495V424.75h5v42.67l41-42.67h5.84l-29.21,30.79L588.34,495H582.6l-28.21-36.43L540,473.36V495Z" transform="translate(-89.62 0)"/><path class="cls-1" d="M651.41,490.49V495H604.58V424.75h45.93v4.55H609.63v27.62h35.74v4.36H609.63v29.21Z" transform="translate(-89.62 0)"/><path class="cls-1" d="M671.9,495V424.75h29.2a18.18,18.18,0,0,1,8.22,1.88,21.1,21.1,0,0,1,6.49,5,23.85,23.85,0,0,1,4.25,7,21.48,21.48,0,0,1,1.54,7.87,23.79,23.79,0,0,1-1.19,7.47,22.11,22.11,0,0,1-3.37,6.49,19,19,0,0,1-5.24,4.75,18.61,18.61,0,0,1-6.74,2.48L722.59,495h-5.84l-17-26.53H677V495ZM677,463.86H701.6a12.82,12.82,0,0,0,6.14-1.49,15.6,15.6,0,0,0,4.75-3.91,17.41,17.41,0,0,0,3-5.54,20.17,20.17,0,0,0,1-6.39,17.29,17.29,0,0,0-1.24-6.48,18.46,18.46,0,0,0-3.36-5.5,17.13,17.13,0,0,0-5-3.81,13.26,13.26,0,0,0-6.09-1.44H677Z" transform="translate(-89.62 0)"/></svg>